<svg xmlns="http://www.w3.org/2000/svg" width="88" height="88" viewBox="0 0 88 88"><g transform="translate(-1870.645 20103.83)"><g transform="translate(1870.645 -20103.83)" fill="#fff" stroke="#156cae" stroke-width="5"><circle cx="44" cy="44" r="44" stroke="none"/><circle cx="44" cy="44" r="41.5" fill="none"/></g><g transform="translate(1941.042 -20086.475) rotate(90)"><g fill="none" stroke="#156cae" stroke-width="5"><circle cx="26.521" cy="26.521" r="26.521" stroke="none"/><circle cx="26.521" cy="26.521" r="24.021" fill="none"/></g><path d="M11.426,34.845a5.763,5.763,0,1,1,1.092.2A5.825,5.825,0,0,1,11.426,34.845Zm10.288-2.04a5.691,5.691,0,0,1,.421-8.077,5.787,5.787,0,0,1,8.133.428,5.691,5.691,0,0,1-.422,8.077,5.786,5.786,0,0,1-8.132-.428ZM.128,18.867A5.756,5.756,0,0,1,11.392,16.5a5.712,5.712,0,0,1-4.431,6.781A5.769,5.769,0,0,1,.128,18.867Zm26.786-.293a5.756,5.756,0,1,1,6.833,4.409,5.769,5.769,0,0,1-6.833-4.409ZM8.038,9.912a5.691,5.691,0,0,1,.421-8.077,5.787,5.787,0,0,1,8.133.428,5.691,5.691,0,0,1-.421,8.077,5.787,5.787,0,0,1-8.133-.428Zm15.675,1.305a5.764,5.764,0,1,1,1.092.2A5.824,5.824,0,0,1,23.713,11.218Z" transform="translate(7.227 9.15)" fill="#156cae"/></g></g></svg>