<svg xmlns="http://www.w3.org/2000/svg" id="vis-info" width="24" height="24" viewBox="0 0 24 24"><path d="M0,0H24V24H0Z" fill="none"/><path d="M11468.588,15511.065a.705.705,0,0,1-.272-.051.39.39,0,0,1-.232-.234.791.791,0,0,1,.085-.545l1.141-2.822c0-.05,0-.1,0-.155V15493a2,2,0,0,1,2-2h14a2,2,0,0,1,2,2v14.259a2,2,0,0,1-2,2h-12.959l-2.877,1.5A1.9,1.9,0,0,1,11468.588,15511.065Zm8.592-12.329v6.634h2.25v-6.634Zm0-4.422v2.211h2.25v-2.211Z" transform="translate(-11466.006 -15487.999)" fill="#156cae"/></svg>
