<svg xmlns="http://www.w3.org/2000/svg" width="88" height="88" viewBox="0 0 88 88"><g transform="translate(-32 93)"><g transform="translate(32 -93)" fill="#fff" stroke="#156cae" stroke-width="5"><circle cx="44" cy="44" r="44" stroke="none"/><circle cx="44" cy="44" r="41.5" fill="none"/></g><path d="M-1672.908-515.112v-16.67l-3.789-2.726-.546-.126v-4.434l-2.467-.677v-36.13a4.056,4.056,0,0,0-3.059-1.137c-.134-.006-.266-.008-.4-.008a5.009,5.009,0,0,0-3.423,1.055,3.8,3.8,0,0,0-.683.826c-.088.138-.147.228-.2.228h-.009c-.079-.018-.252-.164-.379-.478-.225-.558-.385-1.859,1.064-4.307a4.8,4.8,0,0,1,4.5-2.379,15.969,15.969,0,0,1,2.682.3l.006,0c.2.034.388.067.564.094.882.138,2.115.307,3.662.5h2.537v-4.486h-2.683v-4.716h11.625v4.716h-2.683v4.486h3.416v4.028h8.5v4.83h-4.319l-.681,2.173,2.7.224-1.039,31.3-3.37.394v3.541l-.841.2-4.275,2.71v16.67Zm-1.684-29.03,2.759.758v4.139l2.551.738,2.554-.738v-3.977l3.565-.475.695-21.047-5.9-.435v-10.395h-6.26Zm2.929-6.168v-12.674h6.185v12.674Z" transform="translate(1245.229 1264.687) rotate(30)" fill="#156cae"/></g></svg>