<svg xmlns="http://www.w3.org/2000/svg" width="88" height="88" viewBox="0 0 88 88"><g transform="translate(-31 92)"><g transform="translate(31 -92)" fill="#fff" stroke="#156cae" stroke-width="5"><circle cx="44" cy="44" r="44" stroke="none"/><circle cx="44" cy="44" r="41.5" fill="none"/></g><path d="M-6474.924,13740.007h-.045a9.247,9.247,0,0,1-4.821-1.045c-2.131-1.279-3.21-3.721-3.21-7.262l.048-28.689h0l-.045-25.7c0-3.541,1.083-5.985,3.214-7.262a9.208,9.208,0,0,1,4.817-1.048h.042l20.734,0c3.373,0,5.7,1.18,6.917,3.5a11.063,11.063,0,0,1,.986,5.107v.023l-.007,25.38h0l.01,28.372v.021a11.063,11.063,0,0,1-.986,5.107c-1.217,2.324-3.544,3.5-6.917,3.5ZM-6477.8,13701v33.842h26.293v-60.669H-6477.8Zm14.728,31.045v-54.921h5.645c0-.017,2.986.052,2.986,3.986v46.945c0,3.935-3.993,3.969-3.986,3.989Zm-8.014,0c.007-.017-3.986-.055-3.986-3.986v-46.948c0-3.935,2.983-4,2.986-3.986h5.648v54.921Z" transform="translate(6540 -13752.012)" fill="#156cae"/></g></svg>