<svg xmlns="http://www.w3.org/2000/svg" width="88" height="88" viewBox="0 0 88 88"><g transform="translate(-27 92)"><g transform="translate(27 -92)" fill="#fff" stroke="#156cae" stroke-width="5"><circle cx="44" cy="44" r="44" stroke="none"/><circle cx="44" cy="44" r="41.5" fill="none"/></g><g transform="translate(-778.996 -373)"><path d="M-5955.034,13457.135a4.153,4.153,0,0,1-1.1-.132,3.533,3.533,0,0,1-1.1-.577l-8.66-7.556a7.99,7.99,0,0,1-1.53-1.668,3.58,3.58,0,0,1-.5-1.692l-.081-51.2c0-3.541,1.08-5.983,3.21-7.259a9.213,9.213,0,0,1,4.82-1.049h19.776c3.371,0,5.7,1.177,6.915,3.5a11.041,11.041,0,0,1,.988,5.106v.021l-.02,53.652c0,3.736-1.167,6.327-3.47,7.7a10.148,10.148,0,0,1-5.18,1.148h-13.816C-5954.815,13457.13-5954.906,13457.135-5955.034,13457.135Zm-7.768-65.966v53.409l8.281,7.318h17.012v-60.728Z" transform="translate(6800 -13096.01)" fill="#156cae"/><path d="M-7972.657,13831.142a3.139,3.139,0,0,1,3.142-3.143,3.138,3.138,0,0,1,3.135,3.143,3.137,3.137,0,0,1-3.135,3.139A3.139,3.139,0,0,1-7972.657,13831.142Zm-7.676,0a3.144,3.144,0,0,1,3.142-3.143,3.141,3.141,0,0,1,3.139,3.143,3.14,3.14,0,0,1-3.139,3.139A3.143,3.143,0,0,1-7980.333,13831.142Zm7.676-8a3.139,3.139,0,0,1,3.142-3.142,3.138,3.138,0,0,1,3.135,3.142,3.137,3.137,0,0,1-3.135,3.139A3.139,3.139,0,0,1-7972.657,13823.142Zm-7.676,0a3.144,3.144,0,0,1,3.142-3.142,3.141,3.141,0,0,1,3.139,3.142,3.14,3.14,0,0,1-3.139,3.139A3.143,3.143,0,0,1-7980.333,13823.142Zm-7.669,0a3.14,3.14,0,0,1,3.139-3.142,3.144,3.144,0,0,1,3.142,3.142,3.143,3.143,0,0,1-3.142,3.139A3.14,3.14,0,0,1-7988,13823.142Zm15.346-8a3.137,3.137,0,0,1,3.142-3.139,3.135,3.135,0,0,1,3.135,3.139,3.135,3.135,0,0,1-3.135,3.139A3.136,3.136,0,0,1-7972.657,13815.139Zm-7.676,0a3.141,3.141,0,0,1,3.142-3.139,3.138,3.138,0,0,1,3.139,3.139,3.137,3.137,0,0,1-3.139,3.139A3.14,3.14,0,0,1-7980.333,13815.139Zm-7.669,0a3.138,3.138,0,0,1,3.139-3.139,3.141,3.141,0,0,1,3.142,3.139,3.14,3.14,0,0,1-3.142,3.139A3.137,3.137,0,0,1-7988,13815.139Zm15.346-8a3.136,3.136,0,0,1,3.142-3.139,3.135,3.135,0,0,1,3.135,3.139,3.135,3.135,0,0,1-3.135,3.139A3.136,3.136,0,0,1-7972.657,13807.14Zm-7.676,0a3.14,3.14,0,0,1,3.142-3.139,3.137,3.137,0,0,1,3.139,3.139,3.137,3.137,0,0,1-3.139,3.139A3.14,3.14,0,0,1-7980.333,13807.14Zm-7.669,0a3.137,3.137,0,0,1,3.139-3.139,3.14,3.14,0,0,1,3.142,3.139,3.14,3.14,0,0,1-3.142,3.139A3.137,3.137,0,0,1-7988,13807.14Zm15.346-8a3.136,3.136,0,0,1,3.142-3.139,3.135,3.135,0,0,1,3.135,3.139,3.137,3.137,0,0,1-3.135,3.139A3.139,3.139,0,0,1-7972.657,13799.141Zm-7.676,0a3.14,3.14,0,0,1,3.142-3.139,3.137,3.137,0,0,1,3.139,3.139,3.14,3.14,0,0,1-3.139,3.139A3.143,3.143,0,0,1-7980.333,13799.141Zm-7.669,0a3.137,3.137,0,0,1,3.139-3.139,3.14,3.14,0,0,1,3.142,3.139,3.143,3.143,0,0,1-3.142,3.139A3.14,3.14,0,0,1-7988,13799.141Zm15.346-8a3.139,3.139,0,0,1,3.142-3.142,3.138,3.138,0,0,1,3.135,3.142,3.137,3.137,0,0,1-3.135,3.139A3.139,3.139,0,0,1-7972.657,13791.141Zm-7.676,0a3.144,3.144,0,0,1,3.142-3.142,3.141,3.141,0,0,1,3.139,3.142,3.14,3.14,0,0,1-3.139,3.139A3.143,3.143,0,0,1-7980.333,13791.141Zm-7.669,0a3.14,3.14,0,0,1,3.139-3.142,3.144,3.144,0,0,1,3.142,3.142,3.143,3.143,0,0,1-3.142,3.139A3.14,3.14,0,0,1-7988,13791.141Zm15.346-8a3.139,3.139,0,0,1,3.142-3.142,3.137,3.137,0,0,1,3.135,3.142,3.137,3.137,0,0,1-3.135,3.139A3.139,3.139,0,0,1-7972.657,13783.142Zm-7.676,0a3.143,3.143,0,0,1,3.142-3.142,3.14,3.14,0,0,1,3.139,3.142,3.14,3.14,0,0,1-3.139,3.139A3.143,3.143,0,0,1-7980.333,13783.142Zm-7.669,0a3.14,3.14,0,0,1,3.139-3.142,3.143,3.143,0,0,1,3.142,3.142,3.143,3.143,0,0,1-3.142,3.139A3.14,3.14,0,0,1-7988,13783.142Z" transform="translate(8827.523 -13482.062)" fill="#156cae"/></g></g></svg>